Coordinates
version=1
nRows=8
nColumns=34
inDegrees=yes

Units are S.I. units (second, meters, Newtons, ...)
If the header above contains a line with 'inDegrees', this indicates whether rotational values are in degrees (yes) or radians (no).

endheader
time	pelvis_tilt	pelvis_list	pelvis_rotation	pelvis_tx	pelvis_ty	pelvis_tz	hip_flexion_r	hip_adduction_r	hip_rotation_r	knee_angle_r	ankle_angle_r	subtalar_angle_r	mtp_angle_r	hip_flexion_l	hip_adduction_l	hip_rotation_l	knee_angle_l	ankle_angle_l	subtalar_angle_l	mtp_angle_l	lumbar_extension	lumbar_bending	lumbar_rotation	arm_flex_r	arm_add_r	arm_rot_r	elbow_flex_r	pro_sup_r	arm_flex_l	arm_add_l	arm_rot_l	elbow_flex_l	pro_sup_l
     10.28333330	     -0.68819685	     -3.35345043	      4.24775678	      0.79215461	      1.14610018	     -0.03785530	      5.42208098	      5.89070152	      0.47987566	     11.86089051	      6.16774432	    -19.26386378	      0.00000000	     13.29602361	     -5.10020220	      2.19162415	     55.25745651	     10.92368681	    -13.40674484	      0.00000000	     -7.12522817	      5.55998877	     -2.17224472	     -5.03333073	     -7.85066282	     -5.08489277	     31.85516921	     93.90113340	     -8.96707389	     -4.71968047	    -17.32056275	     35.56301805	    102.38530885
     10.30000000	     -0.83835106	     -2.39087819	      4.34576948	      0.80020556	      1.14703065	     -0.03627606	      4.19845841	      5.04315927	      0.00512213	     10.61867673	      6.95660732	    -18.18374970	      0.00000000	     15.95794994	     -4.01339691	      2.13674176	     55.10666962	     11.04485812	    -13.48791792	      0.00000000	     -7.21464705	      4.19095923	     -1.70628961	     -4.91394900	     -7.86336986	     -4.89585026	     33.38000702	     93.87085362	     -9.24856145	     -4.70015078	    -17.38307400	     34.58198246	    102.56424268
     10.31666670	     -0.88727289	     -1.76171792	      4.22803159	      0.80912005	      1.14698838	     -0.03499717	      2.93938800	      4.52275021	     -0.25237938	      9.30748753	      7.24798913	    -17.54818717	      0.00000000	     18.18110986	     -3.32244958	      1.86447053	     54.03574876	     12.51789978	    -13.22468832	      0.00000000	     -7.36056615	      3.27830041	     -1.01991716	     -4.42893280	     -8.03237074	     -4.88574256	     34.94160301	     93.88260084	     -9.04456073	     -4.65923450	    -17.23805520	     33.00541613	    102.76965943
     10.33333330	     -0.98451388	     -1.30673665	      3.91903398	      0.82280211	      1.14567291	     -0.03309301	      1.82135804	      4.15240030	     -0.26137709	      8.16973702	      7.33149557	    -17.30475624	      0.00000000	     19.83403940	     -2.86993473	      1.34429542	     51.85327660	     14.40551365	    -12.56332531	      0.00000000	     -7.30832986	      2.62280419	     -0.30125891	     -3.50522395	     -8.28800355	     -4.80229284	     36.21134750	     93.97280995	     -8.72087192	     -4.59511808	    -16.89032810	     31.21354570	    102.92650269
     10.35000000	     -1.03292178	     -1.08154093	      3.60422219	      0.84174192	      1.14390252	     -0.03114683	      0.66414408	      4.01824649	     -0.26254969	      7.20908770	      7.34547372	    -17.25777817	      0.00000000	     20.98814363	     -2.70680911	      0.69765057	     49.25493924	     15.72013664	    -11.84416653	      0.00000000	     -6.93504947	      2.25914291	      0.26739227	     -2.44141180	     -8.54303677	     -4.60182682	     37.28827299	     94.08211992	     -8.56440408	     -4.49129826	    -16.52588392	     29.40134936	    103.00424366
     10.36666670	     -1.03322950	     -1.14553477	      3.44612394	      0.86316149	      1.14316570	     -0.03091058	     -0.58826892	      4.16906597	     -0.52221986	      6.33891679	      7.30722146	    -17.31682816	      0.00000000	     21.91936067	     -2.83135753	      0.10956735	     46.76582618	     16.04511380	    -11.69070299	      0.00000000	     -6.30408183	      2.24651049	      0.72384195	     -1.77424155	     -8.87322224	     -4.43052373	     38.42362058	     94.18375351	     -8.59949289	     -4.29365704	    -16.04740030	     27.52612655	    103.01888921
     10.38333330	     -1.07063339	     -1.25742429	      3.54565626	      0.88415377	      1.14387639	     -0.03248401	     -1.85114741	      4.34853305	     -0.95640631	      5.52064717	      7.39081443	    -17.37968715	      0.00000000	     22.79706328	     -2.88337808	     -0.21077815	     44.28204418	     15.74162883	    -11.99555548	      0.00000000	     -5.70305001	      2.27862145	      0.84820378	     -1.45425520	     -9.08351989	     -4.64230496	     39.70256084	     94.19163485	     -9.02623307	     -4.08890864	    -15.56484666	     26.38387988	    102.95809205
     10.40000000	     -1.09737768	     -1.35062133	      3.88834095	      0.90235277	      1.14480927	     -0.03460101	     -3.25525682	      4.51189783	     -1.38967229	      4.50701244	      7.72245673	    -17.24973021	      0.00000000	     23.53527647	     -2.79120692	     -0.30241638	     41.25311512	     15.21755289	    -12.29530362	      0.00000000	     -5.47151448	      2.33552283	      0.95645117	     -1.67775650	     -9.24786467	     -5.52479195	     41.57269739	     94.08851090	     -9.36751316	     -3.93702631	    -14.77586598	     25.50451007	    102.70866927
